# xmcd CD database file
#
# Track frame offsets:
#	150
#	11991
#	24318
#	35535
#	44862
#	58365
#	69804
#	82599
#	93393
#	109194
#	122106
#	133638
#
# Disc length: 1944 seconds
#
# Revision: 0
# Processed by: cddbd v1.5.2PL0 Copyright (c) Steve Scherf et al.
# Submitted via: CDex 1.51
#
DISCID=a007960c
DTITLE=Maestro Carioca - A Gafieira - A Gafieira e os Grandes Mestres
DYEAR=2003
DGENRE=MPB
TTITLE0=Na Cadencia do Samba
TTITLE1=Morena Boca de Ouro
TTITLE2=Feitico da Vila
TTITLE3=Palpite Infeliz
TTITLE4=Feitio de Oracao
TTITLE5=Emilia
TTITLE6=Na Baixa do Sapateiro
TTITLE7=Pai Joaquim de Angola
TTITLE8=Folhas Mortas
TTITLE9=Lenco no Pescoco
TTITLE10=Mundo de Zinco
TTITLE11=Atire a Primeira Pedra
EXTD=YEAR: 2003
EXTT0=
EXTT1=
EXTT2=
EXTT3=
EXTT4=
EXTT5=
EXTT6=
EXTT7=
EXTT8=
EXTT9=
EXTT10=
EXTT11=
PLAYORDER=
